<?xml version="1.0" encoding="UTF-8"?>
<svg width="18px" height="18px" viewBox="0 0 18 18" version="1.1" xmlns="http://www.w3.org/2000/svg" xmlns:xlink="http://www.w3.org/1999/xlink">
    <!-- Generator: Sketch 50.2 (55047) - http://www.bohemiancoding.com/sketch -->
    <title>icon-go</title>
    <desc>Created with Sketch.</desc>
    <defs></defs>
    <g id="New-Direction_Athlete" stroke="none" stroke-width="1" fill="none" fill-rule="evenodd">
        <g id="Menu" transform="translate(-130.000000, -351.000000)" fill="#17A6F2" stroke="#17A6F2" stroke-width="0.5">
            <path d="M142.483451,352 L147,352 L147,356.516739 L146.158139,356.516739 L146.158139,353.454543 L137.754332,361.858485 L137.141884,361.245791 L145.545691,352.842104 L142.483451,352.842104 L142.483451,352 Z M145.979457,364.937804 C145.979457,366.622267 144.601705,368 142.891699,368 L134.087759,368 C132.378008,368 131,366.622267 131,364.912286 L131,357.920271 L131,356.108472 C131,354.398746 132.378008,353.020758 134.087759,353.020758 L138.196264,353.020758 L138.196264,353.862861 L134.087759,353.862861 C132.837344,353.862861 131.842116,354.883593 131.842116,356.108472 L131.842116,357.920271 L131.842116,364.912286 C131.842116,366.162682 132.862863,367.157896 134.087759,367.157896 L142.891699,367.157896 C144.142113,367.157896 145.137341,366.137164 145.137341,364.912286 L145.137341,360.778321 L145.979457,360.778321 L145.979457,364.937804 Z" id="icon-go"></path>
        </g>
    </g>
</svg>