<?xml version="1.0" encoding="UTF-8" standalone="no"?>
<svg width="28px" height="28px" viewBox="0 0 28 28" version="1.1" xmlns="http://www.w3.org/2000/svg" xmlns:xlink="http://www.w3.org/1999/xlink">
    <!-- Generator: Sketch 43.2 (39069) - http://www.bohemiancoding.com/sketch -->
    <title>Fill 1</title>
    <desc>Created with Sketch.</desc>
    <defs>
        <linearGradient x1="78.6997112%" y1="11.4792791%" x2="89.4294853%" y2="58.1209385%" id="linearGradient-1">
            <stop stop-color="#FF4F52" offset="0%"></stop>
            <stop stop-color="#008CD8" offset="100%"></stop>
        </linearGradient>
    </defs>
    <g id="SIGN-UP-/-SIGN-IN" stroke="none" stroke-width="1" fill="none" fill-rule="evenodd">
        <g id="Sign-up-A" transform="translate(-40.000000, -27.000000)" fill="url(#linearGradient-1)">
            <path d="M64.721514,40.9998439 L62.9506507,40.9998439 C62.9506507,45.935418 58.9355281,49.9504511 54.0001561,49.9504511 C49.0644719,49.9504511 45.0493493,45.935418 45.0493493,40.9998439 C45.0493493,37.8151089 46.7640046,34.8439595 49.5247527,33.2464397 L48.6379158,31.7144944 C45.332575,33.6270841 43.278486,37.1846569 43.278486,40.9998439 C43.278486,46.9115413 48.0880145,51.7209627 54.0001561,51.7209627 C59.9119855,51.7209627 64.721514,46.9115413 64.721514,40.9998439 M68,40.9998439 L66.2291367,40.9998439 C66.2291367,47.7434007 60.7432389,53.2294885 54.0001561,53.2294885 C47.2567611,53.2294885 41.7708633,47.7434007 41.7708633,40.9998439 C41.7708633,34.2569115 47.2567611,28.7708238 54.0001561,28.7708238 C56.1657243,28.7708238 58.2941327,29.3444446 60.153992,30.4289219 L61.0464496,28.9000993 C58.9158553,27.6569941 56.4789276,27 54.0001561,27 C46.2803038,27 40,33.280476 40,40.9998439 C40,48.7192118 46.2803038,55 54.0001561,55 C61.7196962,55 68,48.7192118 68,40.9998439 M54.0001561,48.2789258 C49.9865948,48.2789258 46.7212241,45.0136279 46.7212241,40.9998439 C46.7212241,39.7208288 47.0584719,38.4617984 47.6961201,37.3601468 L49.2280995,38.2460271 C48.7468969,39.0794477 48.4920874,40.0312148 48.4920874,40.9998439 C48.4920874,44.0375046 50.9627399,46.508102 54.0001561,46.508102 C57.0369478,46.508102 59.5079126,44.0375046 59.5079126,40.9998439 L61.2787759,40.9998439 C61.2787759,45.0136279 58.0134052,48.2789258 54.0001561,48.2789258" id="Fill-1"></path>
        </g>
    </g>
</svg>