<?xml version="1.0" standalone="no"?>
<!DOCTYPE svg PUBLIC "-//W3C//DTD SVG 1.1//EN" "http://www.w3.org/Graphics/SVG/1.1/DTD/svg11.dtd" >
<svg xmlns="http://www.w3.org/2000/svg">
<metadata>Generated by IcoMoon</metadata>
<defs>
<font id="icomoon" horiz-adv-x="1024">
<font-face units-per-em="1024" ascent="960" descent="-64" />
<missing-glyph horiz-adv-x="1024" />
<glyph unicode="&#x20;" horiz-adv-x="512" d="" />
<glyph unicode="&#xe900;" glyph-name="icon-visit" horiz-adv-x="870" d="M339.42 58.095h-219.666c-66.030 0-119.754 53.558-119.754 119.384v355.991c0 65.826 53.724 119.33 119.754 119.33h87.579v-54.044h-87.579c-36.159 0-65.542-29.292-65.542-65.286v-355.991c0-36.048 29.383-65.34 65.542-65.34h245.254l68.415-82.85 63.482 82.85h251.759c36.159 0 65.542 29.292 65.542 65.34v355.991c0 35.994-29.383 65.286-65.542 65.286h-92.308v54.044h92.308c66.030 0 119.754-53.504 119.754-119.33v-355.991c0-65.826-53.724-119.384-119.754-119.384h-224.979l-88.69-115.763-95.575 115.763zM461.342 445.443h-54.212v59.881c0 32.589 14.908 64.043 40.93 86.363l65.108 55.828c14.258 12.214 22.118 28.319 22.118 45.397v99.009c0 35.669-34.424 64.745-76.764 64.745h-58.549c-42.285 0-76.764-29.076-76.764-64.745v-91.497h-54.212v91.497c0 65.502 58.766 118.79 130.976 118.79h58.549c72.21 0 130.921-53.288 130.921-118.79v-99.009c0-32.589-14.908-64.043-40.93-86.417l-65.108-55.774c-14.258-12.214-22.064-28.319-22.064-45.397v-59.881zM488.029 345.856c0-28.125-22.89-50.944-51.102-50.944-28.269 0-51.102 22.819-51.102 50.944s22.833 50.944 51.102 50.944c28.212 0 51.102-22.819 51.102-50.944z" />
<glyph unicode="&#xe901;" glyph-name="icon-phone" d="M350.208 317.952c221.477-221.477 426.423-265.362 493.349-273.993 36.133 56.759 54.638 105.399 66.779 147.017-47.762 42.935-109.202 84.187-165.815 111.25l-86.674-86.747-20.407 5.486c-17.993 4.827-113.445 34.816-231.424 152.795s-147.968 213.431-152.795 231.424l-5.486 20.407 86.747 86.674c-27.063 56.613-68.315 118.053-111.25 165.815-41.618-12.142-90.258-30.647-147.090-66.853 8.631-66.779 52.517-271.653 274.066-493.275zM880.494-32.183l-20.553 1.097c-46.665 2.56-293.010 28.891-561.445 297.326-268.581 268.581-294.839 514.853-297.326 561.445l-1.17 20.626 17.042 11.557c83.895 57.198 152.43 80.018 208.384 94.72l20.699 5.413 14.848-15.287c60.635-62.245 118.418-148.919 150.894-226.304l9.509-22.674-90.917-90.843c12.8-31.817 46.519-98.67 127.269-179.419s147.602-114.469 179.419-127.195l90.843 90.843 22.674-9.509c77.385-32.475 164.059-90.258 226.304-150.894l15.287-14.848-5.413-20.626c-14.702-56.027-37.522-124.562-94.72-208.457l-11.63-16.969z" />
<glyph unicode="&#xe902;" glyph-name="icon_mail-(1)" horiz-adv-x="1418" d="M39.385 960v-945.231h1339.077v945.231h-1339.077zM456.862 542.523l-338.708-385.969v677.415l338.708-291.446zM181.169 889.108h1063.385l-535.631-448.985-527.754 448.985zM519.877 487.385l189.046-157.538 189.046 157.538 370.215-425.354h-1118.523l370.215 425.354zM960.985 542.523l338.708 283.569v-677.415l-338.708 393.846z" />
<glyph unicode="&#xe903;" glyph-name="tick" horiz-adv-x="1136" d="M103.743 544.39l-95.975-84.692 410.574-465.275 709.89 823.584-96.954 83.57-614.069-712.416z" />
<glyph unicode="&#xe904;" glyph-name="logo" d="M902.737 447.16h-64.538c0-179.493-146.328-325.508-326.193-325.508-179.877 0-326.205 146.015-326.205 325.508 0 115.82 62.489 223.872 163.102 281.97l-32.32 55.713c-120.46-69.556-195.32-198.934-195.32-337.682 0-214.992 175.279-389.897 390.743-389.897 215.452 0 390.731 174.905 390.731 389.897zM1024 448.006h-64.763c0-246.622-200.627-447.256-447.231-447.256-246.616 0-447.243 200.634-447.243 447.256 0 246.599 200.627 447.233 447.243 447.233 79.198 0 157.037-20.978 225.055-60.639l32.638 55.911c-77.919 45.462-167.041 69.489-257.693 69.489-282.326 0-512.006-229.686-512.006-511.994s229.68-512.006 512.006-512.006c282.315 0 511.994 229.697 511.994 512.006zM512.006 178.526c-148.589 0-269.479 120.881-269.479 269.47 0 47.349 12.486 93.958 36.092 134.741l56.717-32.795c-17.815-30.853-27.249-66.087-27.249-101.946 0-112.453 91.468-203.914 203.919-203.914 112.428 0 203.907 91.461 203.907 203.914h65.561c0-148.589-120.89-269.47-269.468-269.47z" />
<glyph unicode="&#xe905;" glyph-name="add" d="M51.2 448c0-254.533 206.285-460.8 460.8-460.8 254.533 0 460.8 206.285 460.8 460.8 0 254.533-206.285 460.8-460.8 460.8-254.533 0-460.8-206.285-460.8-460.8zM0 448c0 282.77 229.168 512 512 512 282.77 0 512-229.168 512-512 0-282.77-229.168-512-512-512-282.77 0-512 229.168-512 512zM492.495 652.8h51.2v-409.6h-51.2v409.6zM718.019 467.911v-51.2h-409.6v51.2h409.6z" />
<glyph unicode="&#xe906;" glyph-name="calender" horiz-adv-x="1195" d="M66.37 2.37h1061.926v754.726h-1061.926v-754.726zM0 823.467h1194.667v-887.467h-1194.667v887.467zM0 960h1194.667v-136.533h-1194.667v136.533zM0 413.867h1128.296v-85.333h-1128.296v85.333zM432.356 777.956v-796.444h-85.333v796.444h85.333zM830.578 777.956v-796.444h-85.333v796.444h85.333z" />
<glyph unicode="&#xe907;" glyph-name="down-arrow" horiz-adv-x="1456" d="M728 303.184l-579.262 579.262-144.815-144.815 724.077-724.077 724.077 724.077-144.815 144.815-579.262-579.262z" />
<glyph unicode="&#xe908;" glyph-name="calender2" horiz-adv-x="1195" d="M66.37 2.37h1061.926v754.726h-1061.926v-754.726zM0 823.467h1194.667v-887.467h-1194.667v887.467zM0 960h1194.667v-136.533h-1194.667v136.533zM0 413.867h1128.296v-85.333h-1128.296v85.333zM432.356 777.956v-796.444h-85.333v796.444h85.333zM830.578 777.956v-796.444h-85.333v796.444h85.333z" />
<glyph unicode="&#xe909;" glyph-name="x" d="M141.385-26.142l844.757 844.757-120.68 120.68-844.757-844.757zM986.142 94.538l-844.757 844.757-120.68-120.68 844.757-844.757z" />
<glyph unicode="&#xe90a;" glyph-name="tick-thin" horiz-adv-x="1306" d="M49.665 514.27l-48.13-42.184 467.824-533.758 834.95 975.262-48.617 41.622-786.901-919.138z" />
<glyph unicode="&#xe90b;" glyph-name="info" d="M512-7.111c251.351 0 455.111 203.76 455.111 455.111s-203.76 455.111-455.111 455.111c-251.351 0-455.111-203.76-455.111-455.111s203.76-455.111 455.111-455.111zM512-64c-282.77 0-512 229.23-512 512s229.23 512 512 512c282.77 0 512-229.23 512-512s-229.23-512-512-512zM632.276 247.263l-8.092-29.257c-24.276-8.452-43.647-14.899-58.115-19.342s-31.264-6.664-50.391-6.664c-29.425 0-52.291 6.339-68.598 19.017s-24.46 28.769-24.46 48.274c0 7.585 0.613 15.333 1.839 23.243s3.188 16.85 5.885 26.819l30.161 94.923c2.697 9.102 4.966 17.717 6.805 25.844s2.759 15.55 2.759 22.268c0 12.136-2.82 20.588-8.46 25.356s-16.429 7.152-32.368 7.152c-7.847 0-15.877-1.084-24.092-3.251s-15.264-4.226-21.149-6.177l8.092 29.257c19.862 7.152 38.866 13.274 57.011 18.367s35.31 7.639 51.494 7.639c29.18 0 51.678-6.231 67.494-18.692s23.724-28.661 23.724-48.599c0-4.118-0.552-11.378-1.655-21.78s-3.126-19.938-6.069-28.607l-30.161-94.598c-2.452-7.585-4.659-16.254-6.621-26.006s-2.943-17.121-2.943-22.105c0-12.57 3.188-21.13 9.563-25.681s17.41-6.827 33.103-6.827c7.356 0 15.693 1.138 25.011 3.413s16.061 4.28 20.23 6.014zM640 644.185c0-16.471-7.050-30.503-21.149-42.098s-31.080-17.392-50.943-17.392c-19.862 0-36.904 5.797-51.126 17.392s-21.333 25.627-21.333 42.098c0 16.471 7.111 30.557 21.333 42.26s31.264 17.554 51.126 17.554c19.862 0 36.843-5.851 50.943-17.554s21.149-25.79 21.149-42.26z" />
<glyph unicode="&#xe90c;" glyph-name="remove" d="M51.2 448c0-254.533 206.285-460.8 460.8-460.8 254.533 0 460.8 206.285 460.8 460.8 0 254.533-206.285 460.8-460.8 460.8-254.533 0-460.8-206.285-460.8-460.8zM0 448c0 282.77 229.168 512 512 512 282.77 0 512-229.168 512-512 0-282.77-229.168-512-512-512-282.77 0-512 229.168-512 512zM635.605 607.626l36.204-36.204-289.631-289.631-36.204 36.204 289.631 289.631zM671.809 317.995l-36.204-36.204-289.631 289.631 36.204 36.204 289.631-289.631z" />
<glyph unicode="&#xe90d;" glyph-name="pen" d="M112.036 195.237c-8.055 8.055-21.159 8.055-29.278 0-5.881-5.882-79.46-225.742-82.208-234.117-3.452-14.896 9.909-27.874 24.867-24.614 7.863 2.621 228.023 76.334 233.904 82.152 8.055 8.119 8.055 21.225 0 29.281l-147.285 147.298zM687.111 778.035c-10.74 10.868-28.255 10.804-38.995 0l-506.739-506.72c-10.74-10.804-10.803-28.194 0-39.062l154.956-154.97c10.74-10.74 28.255-10.74 38.995 0l506.739 506.784c10.803 10.804 10.803 28.258 0 39.062l-154.956 154.906zM899.664 941.827c-24.292 24.23-63.542 24.23-87.834 0l-91.478-91.55c-10.804-10.741-10.804-28.194 0-39.062l154.892-154.906c10.804-10.804 28.255-10.804 39.059 0l91.478 91.486c24.292 24.294 24.292 63.612 0 87.906l-106.117 106.126z" />
<glyph unicode="&#xe90e;" glyph-name="plus" horiz-adv-x="1030" d="M463.8 960h102.4v-1024h-102.4v1024zM1027 499.2v-102.4h-1024v102.4h1024z" />
<glyph unicode="&#xe90f;" glyph-name="spinner" d="M102.4 448c0 0 0-5.12 1.024-14.336 0-5.12 1.024-10.24 2.048-17.408 0-3.072 1.024-7.168 1.024-11.264 1.024-4.096 1.024-8.192 2.048-12.288 2.048-8.192 3.072-18.432 5.12-28.672 3.072-10.24 6.144-21.504 9.216-32.768s9.216-23.552 14.336-35.84c5.12-12.288 12.288-24.576 18.432-37.888 3.072-6.144 8.192-12.288 12.288-19.456 4.096-6.144 8.192-13.312 13.312-19.456 10.24-12.288 19.456-26.624 31.744-37.888 22.528-25.6 51.2-48.128 80.896-68.608 30.72-20.48 66.56-34.816 103.424-47.104 36.864-11.264 76.8-15.36 114.688-16.384 40.96 1.024 78.848 6.144 115.712 16.384 36.864 12.288 71.68 26.624 102.4 47.104s59.392 43.008 80.896 68.608c12.288 12.288 21.504 25.6 31.744 37.888 5.12 6.144 9.216 13.312 13.312 19.456s8.192 13.312 12.288 19.456c6.144 13.312 13.312 25.6 18.432 37.888s10.24 24.576 14.336 35.84c3.072 11.264 6.144 22.528 9.216 32.768 2.048 10.24 4.096 19.456 5.12 28.672 1.024 4.096 1.024 8.192 2.048 12.288 0 4.096 1.024 7.168 1.024 11.264 1.024 7.168 1.024 12.288 2.048 17.408 1.024 9.216 1.024 14.336 1.024 14.336s0-5.12 0-14.336c0-5.12 0-10.24 0-17.408 0-3.072 0-7.168 0-11.264s-1.024-8.192-1.024-12.288c-1.024-9.216-2.048-18.432-4.096-28.672s-5.12-21.504-7.168-33.792c-3.072-12.288-8.192-24.576-12.288-37.888-2.048-7.168-5.12-13.312-8.192-19.456-3.072-7.168-6.144-13.312-9.216-20.48s-7.168-13.312-11.264-20.48c-4.096-7.168-7.168-14.336-12.288-20.48-10.24-13.312-19.456-27.648-31.744-40.96-22.528-27.648-51.2-51.2-82.944-72.704-8.192-5.12-16.384-10.24-24.576-15.36s-17.408-9.216-26.624-13.312l-14.336-7.168-14.336-5.12c-9.216-3.072-18.432-7.168-28.672-10.24-38.912-11.264-80.896-17.408-120.832-18.432l-30.72 2.048c-10.24 0-20.48 2.048-30.72 3.072l-15.36 2.048-7.168 1.024-7.168 2.048c-10.24 3.072-19.456 5.12-29.696 7.168-9.216 3.072-19.456 7.168-28.672 10.24l-14.336 6.144-13.312 6.144c-9.216 4.096-18.432 8.192-26.624 13.312s-16.384 10.24-24.576 15.36c-31.744 21.504-60.416 46.080-82.944 72.704-12.288 12.288-21.504 27.648-31.744 40.96-5.12 6.144-8.192 14.336-12.288 20.48-4.096 7.168-8.192 13.312-11.264 20.48s-6.144 13.312-9.216 20.48c-3.072 7.168-6.144 13.312-8.192 19.456-4.096 13.312-9.216 25.6-12.288 37.888s-5.12 23.552-7.168 33.792c-2.048 10.24-3.072 20.48-4.096 28.672-1.024 4.096-1.024 8.192-1.024 12.288s0 7.168 0 11.264 0 12.288 0 17.408c-1.024 10.24-1.024 15.36-1.024 15.36z" />
<glyph unicode="&#xe910;" glyph-name="right-arrow" d="M512-12.8c254.493 0 460.8 206.307 460.8 460.8s-206.307 460.8-460.8 460.8c-254.493 0-460.8-206.307-460.8-460.8s206.307-460.8 460.8-460.8zM512-64c-282.77 0-512 229.23-512 512s229.23 512 512 512c282.77 0 512-229.23 512-512s-229.23-512-512-512zM591.134 448l-156.002-156.002c-9.526-9.526-9.64-25.912 0.396-35.949l7.099-7.099c9.796-9.796 26.131-10.214 35.949-0.396l181.671 181.671c4.357 4.357 6.745 10.148 7.093 16.111 0.501 7.012-1.819 14.168-7.093 19.442l-181.671 181.671c-9.526 9.526-25.912 9.64-35.949-0.396l-7.099-7.099c-9.796-9.796-10.214-26.131-0.396-35.949l156.002-156.002z" />
<glyph unicode="&#xe911;" glyph-name="search" d="M715.692 323.193c6.369-2.9 12.324-6.957 17.529-12.162l273.063-273.063c23.458-23.458 23.75-61.199 0.289-84.661-23.299-23.299-61.434-22.938-84.661 0.289l-273.063 273.063c-5.224 5.224-9.299 11.157-12.219 17.482-66.518-50.055-149.244-79.722-238.897-79.722-219.662 0-397.733 178.097-397.733 397.791s178.071 397.791 397.733 397.791c219.662 0 397.733-178.097 397.733-397.791 0-89.705-29.688-172.474-79.774-239.016zM397.733 243.977c175.73 0 318.187 142.478 318.187 318.233s-142.457 318.233-318.187 318.233c-175.73 0-318.187-142.478-318.187-318.233s142.457-318.233 318.187-318.233z" />
<glyph unicode="&#xe912;" glyph-name="resend" d="M938.117 678.239c-88.541 152.891-253.777 255.294-422.285 255.534-267.353 0-483.95-217.965-483.95-486.725h72.736c0 228.691 184.135 413.989 411.162 413.989 141.633-0.202 283.432-88.081 359.394-219.249l62.943 36.451zM76.421 244.378c78.7-172.842 250.261-283.802 439.311-284.054 267.349 0 483.946 217.965 483.947 486.725h-72.736c0-228.691-184.135-413.988-411.162-413.989-160.483 0.214-306.241 94.486-373.163 241.459l-66.197-30.141zM34.555 314.25l264.158-4.149-264.049-262.037zM969.895 617.365l-266.108 4.193 265.998 264.066z" />
<glyph unicode="&#xe913;" glyph-name="trash" horiz-adv-x="967" d="M929.915 804.571h-217.6v42.057c0 54.857-46.496 100.571-102.291 100.571h-252.937c-55.795 0-102.291-45.714-102.291-100.571v-40.229h-217.6c-14.879 0-27.897-12.8-27.897-27.429s13.019-27.429 27.897-27.429h59.515l39.056-632.686c3.72-93.257 79.973-168.229 176.684-168.229h342.209c96.711 0 172.964 73.143 176.684 166.4l39.056 632.686h59.515c14.879 0 27.897 12.8 27.897 27.429s-13.019 27.429-27.897 27.429zM310.591 846.629c0 25.6 20.458 45.714 46.496 45.714h254.797c26.038 0 46.496-20.114 46.496-45.714v-40.229h-347.788v40.229zM775.549 118.857c-1.86-64-55.795-115.2-120.889-115.2h-342.209c-65.094 0-119.029 51.2-120.889 115.2l-39.056 629.029h662.099l-39.056-629.029zM483.556 164.571c14.879 0 27.897 12.8 27.897 27.429v384c0 14.629-13.019 27.429-27.897 27.429s-27.897-12.8-27.897-27.429v-384c0-14.629 13.019-27.429 27.897-27.429zM345.928 164.571c1.86 0 1.86 0 0 0 16.738 0 27.897 12.8 27.897 29.257l-13.019 384c0 14.629-13.019 27.429-29.757 25.6-14.879 0-27.897-12.8-26.038-29.257l13.019-384c1.86-12.8 13.019-25.6 27.897-25.6zM619.323 164.571c0 0 0 0 0 0 16.738 0 27.897 10.971 29.757 25.6l13.019 384c0 14.629-11.159 27.429-26.038 29.257-14.879 0-27.897-10.971-29.757-25.6l-13.019-384c-1.86-16.457 11.159-27.429 26.038-29.257z" />
<glyph unicode="&#xea90;" glyph-name="facebook" d="M608 768h160v192h-160c-123.514 0-224-100.486-224-224v-96h-128v-192h128v-512h192v512h160l32 192h-192v96c0 17.346 14.654 32 32 32z" />
<glyph unicode="&#xea92;" glyph-name="instagram" d="M512 867.8c136.8 0 153-0.6 206.8-3 50-2.2 77-10.6 95-17.6 23.8-9.2 41-20.4 58.8-38.2 18-18 29-35 38.4-58.8 7-18 15.4-45.2 17.6-95 2.4-54 3-70.2 3-206.8s-0.6-153-3-206.8c-2.2-50-10.6-77-17.6-95-9.2-23.8-20.4-41-38.2-58.8-18-18-35-29-58.8-38.4-18-7-45.2-15.4-95-17.6-54-2.4-70.2-3-206.8-3s-153 0.6-206.8 3c-50 2.2-77 10.6-95 17.6-23.8 9.2-41 20.4-58.8 38.2-18 18-29 35-38.4 58.8-7 18-15.4 45.2-17.6 95-2.4 54-3 70.2-3 206.8s0.6 153 3 206.8c2.2 50 10.6 77 17.6 95 9.2 23.8 20.4 41 38.2 58.8 18 18 35 29 58.8 38.4 18 7 45.2 15.4 95 17.6 53.8 2.4 70 3 206.8 3zM512 960c-139 0-156.4-0.6-211-3-54.4-2.4-91.8-11.2-124.2-23.8-33.8-13.2-62.4-30.6-90.8-59.2-28.6-28.4-46-57-59.2-90.6-12.6-32.6-21.4-69.8-23.8-124.2-2.4-54.8-3-72.2-3-211.2s0.6-156.4 3-211c2.4-54.4 11.2-91.8 23.8-124.2 13.2-33.8 30.6-62.4 59.2-90.8 28.4-28.4 57-46 90.6-59 32.6-12.6 69.8-21.4 124.2-23.8 54.6-2.4 72-3 211-3s156.4 0.6 211 3c54.4 2.4 91.8 11.2 124.2 23.8 33.6 13 62.2 30.6 90.6 59s46 57 59 90.6c12.6 32.6 21.4 69.8 23.8 124.2 2.4 54.6 3 72 3 211s-0.6 156.4-3 211c-2.4 54.4-11.2 91.8-23.8 124.2-12.6 34-30 62.6-58.6 91-28.4 28.4-57 46-90.6 59-32.6 12.6-69.8 21.4-124.2 23.8-54.8 2.6-72.2 3.2-211.2 3.2v0zM512 711c-145.2 0-263-117.8-263-263s117.8-263 263-263 263 117.8 263 263c0 145.2-117.8 263-263 263zM512 277.4c-94.2 0-170.6 76.4-170.6 170.6s76.4 170.6 170.6 170.6c94.2 0 170.6-76.4 170.6-170.6s-76.4-170.6-170.6-170.6zM846.8 721.4c0-33.91-27.49-61.4-61.4-61.4s-61.4 27.49-61.4 61.4c0 33.91 27.49 61.4 61.4 61.4s61.4-27.49 61.4-61.4z" />
<glyph unicode="&#xea96;" glyph-name="twitter" d="M1024 733.6c-37.6-16.8-78.2-28-120.6-33 43.4 26 76.6 67.2 92.4 116.2-40.6-24-85.6-41.6-133.4-51-38.4 40.8-93 66.2-153.4 66.2-116 0-210-94-210-210 0-16.4 1.8-32.4 5.4-47.8-174.6 8.8-329.4 92.4-433 219.6-18-31-28.4-67.2-28.4-105.6 0-72.8 37-137.2 93.4-174.8-34.4 1-66.8 10.6-95.2 26.2 0-0.8 0-1.8 0-2.6 0-101.8 72.4-186.8 168.6-206-17.6-4.8-36.2-7.4-55.4-7.4-13.6 0-26.6 1.4-39.6 3.8 26.8-83.4 104.4-144.2 196.2-146-72-56.4-162.4-90-261-90-17 0-33.6 1-50.2 3 93.2-59.8 203.6-94.4 322.2-94.4 386.4 0 597.8 320.2 597.8 597.8 0 9.2-0.2 18.2-0.6 27.2 41 29.4 76.6 66.4 104.8 108.6z" />
<glyph unicode="&#xeaca;" glyph-name="linkedin2" d="M384 576h177.106v-90.782h2.532c24.64 44.194 84.958 90.782 174.842 90.782 186.946 0 221.52-116.376 221.52-267.734v-308.266h-184.61v273.278c0 65.184-1.334 149.026-96.028 149.026-96.148 0-110.82-70.986-110.82-144.292v-278.012h-184.542v576zM64 576h192v-576h-192v576zM256 736c0-53.019-42.981-96-96-96s-96 42.981-96 96c0 53.019 42.981 96 96 96s96-42.981 96-96z" />
</font>
</defs>
</svg>
